<?xml version="1.0" encoding="utf-8"?>
<!-- Generator: Adobe Illustrator 25.4.1, SVG Export Plug-In . SVG Version: 6.00 Build 0)  -->
<svg version="1.1" id="レイヤー_1" xmlns="http://www.w3.org/2000/svg" xmlns:xlink="http://www.w3.org/1999/xlink" x="0px"
	 y="0px" viewBox="0 0 440 440" style="enable-background:new 0 0 440 440;" xml:space="preserve">
<style type="text/css">
	.st0{fill:#FF0000;}
	.st1{fill:#FFFF00;}
</style>
<g id="rLYaHq_00000109731511140545082310000007971547579849467061_">
	
		<image style="overflow:visible;" width="440" height="440" id="rLYaHq" xlink:href="8CBAB25B277D6E7.png"  transform="matrix(1 0 0 1 -535.2978 -10.1224)">
	</image>
</g>
<path class="st0" d="M220,440L220,440C98.5,440,0,341.5,0,220v0C0,98.5,98.5,0,220,0h0c121.5,0,220,98.5,220,220v0
	C440,341.5,341.5,440,220,440z"/>
<g>
	<path class="st1" d="M102.4,171c0,3.6-0.9,6.8-2.8,9.7c-1.9,2.9-4.6,5.1-8.1,6.7s-7.8,2.4-12.7,2.4c-5.9,0-10.7-1.1-14.5-3.3
		c-2.7-1.6-4.9-3.7-6.6-6.4c-1.7-2.7-2.5-5.2-2.5-7.8c0-1.5,0.5-2.7,1.5-3.7c1-1,2.3-1.6,3.9-1.6c1.3,0,2.3,0.4,3.2,1.2
		s1.6,2,2.2,3.6c0.8,1.9,1.6,3.5,2.5,4.7c0.9,1.3,2.1,2.3,3.7,3.1c1.6,0.8,3.7,1.2,6.3,1.2c3.6,0,6.5-0.8,8.7-2.5
		c2.2-1.7,3.3-3.7,3.3-6.2c0-2-0.6-3.6-1.8-4.8c-1.2-1.2-2.8-2.2-4.7-2.8c-1.9-0.6-4.5-1.3-7.6-2.1c-4.3-1-7.8-2.2-10.7-3.5
		c-2.9-1.3-5.2-3.2-6.8-5.5c-1.7-2.3-2.5-5.2-2.5-8.6c0-3.3,0.9-6.2,2.7-8.7c1.8-2.5,4.4-4.5,7.7-5.9c3.4-1.4,7.3-2,11.9-2
		c3.6,0,6.8,0.5,9.5,1.4s4.9,2.1,6.6,3.6c1.8,1.5,3,3.1,3.9,4.7c0.8,1.6,1.2,3.3,1.2,4.8c0,1.4-0.5,2.7-1.5,3.9
		c-1,1.1-2.3,1.7-3.8,1.7c-1.4,0-2.4-0.3-3.1-1c-0.7-0.7-1.5-1.8-2.3-3.4c-1.1-2.2-2.4-4-3.9-5.2c-1.5-1.3-3.9-1.9-7.3-1.9
		c-3.1,0-5.6,0.7-7.5,2c-1.9,1.4-2.9,3-2.9,4.9c0,1.2,0.3,2.2,1,3.1c0.6,0.9,1.5,1.6,2.7,2.2c1.1,0.6,2.3,1.1,3.4,1.5
		c1.2,0.4,3.1,0.9,5.8,1.5c3.3,0.8,6.4,1.6,9.1,2.6c2.7,0.9,5,2.1,6.9,3.4c1.9,1.4,3.4,3.1,4.5,5.1C101.9,165.5,102.4,168,102.4,171
		z"/>
	<path class="st1" d="M151.8,138.7h-27.1v14.6h25c1.8,0,3.2,0.4,4.1,1.2c0.9,0.8,1.4,1.9,1.4,3.3c0,1.4-0.4,2.5-1.3,3.3
		c-0.9,0.9-2.3,1.3-4.1,1.3h-25v16.9h28c1.9,0,3.3,0.4,4.3,1.3c1,0.9,1.4,2,1.4,3.5c0,1.4-0.5,2.5-1.4,3.4c-1,0.9-2.4,1.3-4.3,1.3
		H120c-2.6,0-4.5-0.6-5.7-1.7c-1.1-1.2-1.7-3-1.7-5.6v-44.7c0-1.7,0.3-3.1,0.8-4.2c0.5-1.1,1.3-1.9,2.4-2.4c1.1-0.5,2.5-0.8,4.2-0.8
		h31.8c1.9,0,3.3,0.4,4.3,1.3c0.9,0.9,1.4,2,1.4,3.3c0,1.4-0.5,2.5-1.4,3.4C155.1,138.3,153.7,138.7,151.8,138.7z"/>
	<path class="st1" d="M218.6,170.1c0,1.9-0.5,3.9-1.4,6.1c-0.9,2.2-2.4,4.4-4.4,6.5c-2,2.1-4.6,3.8-7.7,5.2c-3.1,1.3-6.7,2-10.9,2
		c-3.1,0-6-0.3-8.6-0.9c-2.6-0.6-4.9-1.5-7-2.8c-2.1-1.3-4-2.9-5.8-5c-1.6-1.9-2.9-4-4-6.3c-1.1-2.3-1.9-4.8-2.5-7.4
		c-0.6-2.6-0.8-5.4-0.8-8.3c0-4.8,0.7-9.1,2.1-12.8c1.4-3.8,3.4-7,6-9.7s5.6-4.7,9.1-6.1c3.5-1.4,7.2-2.1,11.1-2.1
		c4.8,0,9.1,1,12.8,2.9c3.8,1.9,6.6,4.3,8.6,7.1c2,2.8,3,5.5,3,8c0,1.4-0.5,2.6-1.5,3.6s-2.1,1.6-3.5,1.6c-1.5,0-2.7-0.4-3.5-1.1
		c-0.8-0.7-1.6-2-2.6-3.8c-1.6-2.9-3.4-5.1-5.5-6.6c-2.1-1.5-4.7-2.2-7.8-2.2c-4.9,0-8.9,1.9-11.8,5.6c-2.9,3.8-4.4,9.1-4.4,16
		c0,4.6,0.6,8.5,1.9,11.5c1.3,3.1,3.1,5.4,5.5,6.9c2.4,1.5,5.2,2.3,8.3,2.3c3.5,0,6.4-0.9,8.8-2.6c2.4-1.7,4.2-4.2,5.4-7.6
		c0.5-1.6,1.1-2.8,1.9-3.8c0.8-1,2-1.5,3.6-1.5c1.4,0,2.7,0.5,3.7,1.5C218.1,167.3,218.6,168.6,218.6,170.1z"/>
	<path class="st1" d="M245.6,163.4h-4.2v19.1c0,2.5-0.6,4.4-1.7,5.6c-1.1,1.2-2.6,1.8-4.3,1.8c-1.9,0-3.4-0.6-4.5-1.9
		c-1.1-1.2-1.6-3.1-1.6-5.5v-45.7c0-2.6,0.6-4.5,1.7-5.6c1.2-1.2,3-1.7,5.6-1.7h19.6c2.7,0,5,0.1,6.9,0.3c1.9,0.2,3.6,0.7,5.2,1.4
		c1.9,0.8,3.5,1.9,4.9,3.4c1.4,1.5,2.5,3.2,3.3,5.1c0.7,1.9,1.1,4,1.1,6.1c0,4.4-1.2,8-3.7,10.6c-2.5,2.6-6.3,4.5-11.4,5.6
		c2.1,1.1,4.2,2.8,6.1,5c1.9,2.2,3.7,4.6,5.2,7.1c1.5,2.5,2.7,4.8,3.6,6.8c0.9,2,1.3,3.4,1.3,4.2c0,0.8-0.2,1.6-0.8,2.3
		c-0.5,0.8-1.2,1.4-2,1.8c-0.9,0.4-1.9,0.7-3,0.7c-1.4,0-2.5-0.3-3.4-1c-0.9-0.6-1.7-1.4-2.4-2.4c-0.7-1-1.6-2.4-2.7-4.3l-4.8-8
		c-1.7-2.9-3.3-5.2-4.6-6.7c-1.4-1.5-2.8-2.6-4.2-3.2C249.5,163.7,247.7,163.4,245.6,163.4z M252.5,138.4h-11.1v16.3h10.8
		c2.9,0,5.3-0.2,7.3-0.8c2-0.5,3.5-1.4,4.5-2.6c1-1.2,1.6-2.9,1.6-5c0-1.6-0.4-3.1-1.3-4.4c-0.8-1.3-2-2.2-3.5-2.8
		C259.4,138.7,256.6,138.4,252.5,138.4z"/>
	<path class="st1" d="M328.3,138.7h-27.1v14.6h25c1.8,0,3.2,0.4,4.1,1.2c0.9,0.8,1.4,1.9,1.4,3.3c0,1.4-0.4,2.5-1.3,3.3
		c-0.9,0.9-2.3,1.3-4.1,1.3h-25v16.9h28c1.9,0,3.3,0.4,4.3,1.3c1,0.9,1.4,2,1.4,3.5c0,1.4-0.5,2.5-1.4,3.4c-1,0.9-2.4,1.3-4.3,1.3
		h-32.7c-2.6,0-4.5-0.6-5.7-1.7c-1.1-1.2-1.7-3-1.7-5.6v-44.7c0-1.7,0.3-3.1,0.8-4.2c0.5-1.1,1.3-1.9,2.4-2.4
		c1.1-0.5,2.5-0.8,4.2-0.8h31.8c1.9,0,3.3,0.4,4.3,1.3c0.9,0.9,1.4,2,1.4,3.3c0,1.4-0.5,2.5-1.4,3.4
		C331.6,138.3,330.2,138.7,328.3,138.7z"/>
	<path class="st1" d="M383.1,139.3h-13.1v43.2c0,2.5-0.6,4.3-1.7,5.5c-1.1,1.2-2.5,1.8-4.3,1.8c-1.8,0-3.2-0.6-4.4-1.8
		s-1.7-3.1-1.7-5.5v-43.2h-13.1c-2.1,0-3.6-0.5-4.6-1.4c-1-0.9-1.5-2.1-1.5-3.6c0-1.5,0.5-2.8,1.6-3.6c1-0.9,2.5-1.3,4.5-1.3h38.3
		c2.1,0,3.6,0.5,4.6,1.4c1,0.9,1.5,2.1,1.5,3.6c0,1.5-0.5,2.7-1.5,3.6C386.7,138.9,385.1,139.3,383.1,139.3z"/>
</g>
<g>
	<g>
		<path class="st1" d="M240.6,247.1c-1,10.5-5.7,67.1-6.9,73.2c-1.1,6.5-5.4,10.2-11.5,10.5h-0.6c-5.6,0-9.8-4-11.3-10.7
			c-1.3-5.4-5.9-65.3-6.3-74.1c-0.4-6.5,1.1-12.1,4.8-16.1c3.4-4,8.8-6.3,14.8-6.3c4.8,0,9,1.9,12.1,5.4
			C239.3,233.1,241,239.8,240.6,247.1z M237.4,344c2.1,3.8,2.7,8.6,1.5,14c-1.7,8.4-8.6,14.4-16.7,14.4c-11.1,0-18.2-9.4-18.2-18
			c0-7.9,5.2-19,16.3-19c1.3,0,2.7,0.2,4,0.4C230.5,337.1,234.9,340,237.4,344z"/>
	</g>
</g>
</svg>
