<?xml version="1.0" encoding="utf-8"?>
<!-- Generator: Adobe Illustrator 25.4.1, SVG Export Plug-In . SVG Version: 6.00 Build 0)  -->
<svg version="1.1" id="レイヤー_1" xmlns="http://www.w3.org/2000/svg" xmlns:xlink="http://www.w3.org/1999/xlink" x="0px"
	 y="0px" viewBox="0 0 440 440" style="enable-background:new 0 0 440 440;" xml:space="preserve">
<style type="text/css">
	.st0{fill:#FF0000;}
	.st1{fill:#FFFF00;}
	.st2{fill:#FFF45D;}
</style>
<g id="rLYaHq_00000109731511140545082310000007971547579849467061_">
	
		<image style="overflow:visible;" width="440" height="440" id="rLYaHq" xlink:href="861F8722D29B63E6.png"  transform="matrix(1 0 0 1 -535.2978 -10.1224)">
	</image>
</g>
<path class="st0" d="M220,440L220,440C98.5,440,0,341.5,0,220v0C0,98.5,98.5,0,220,0h0c121.5,0,220,98.5,220,220v0
	C440,341.5,341.5,440,220,440z"/>
<g>
	<path class="st1" d="M102.4-162.6c0,3.6-0.9,6.8-2.8,9.7c-1.9,2.9-4.6,5.1-8.1,6.7s-7.8,2.4-12.7,2.4c-5.9,0-10.7-1.1-14.5-3.3
		c-2.7-1.6-4.9-3.7-6.6-6.4c-1.7-2.7-2.5-5.2-2.5-7.8c0-1.5,0.5-2.7,1.5-3.7c1-1,2.3-1.6,3.9-1.6c1.3,0,2.3,0.4,3.2,1.2
		s1.6,2,2.2,3.6c0.8,1.9,1.6,3.5,2.5,4.7c0.9,1.3,2.1,2.3,3.7,3.1c1.6,0.8,3.7,1.2,6.3,1.2c3.6,0,6.5-0.8,8.7-2.5
		c2.2-1.7,3.3-3.7,3.3-6.2c0-2-0.6-3.6-1.8-4.8c-1.2-1.2-2.8-2.2-4.7-2.8c-1.9-0.6-4.5-1.3-7.6-2.1c-4.3-1-7.8-2.2-10.7-3.5
		c-2.9-1.3-5.2-3.2-6.8-5.5c-1.7-2.3-2.5-5.2-2.5-8.6c0-3.3,0.9-6.2,2.7-8.7c1.8-2.5,4.4-4.5,7.7-5.9c3.4-1.4,7.3-2,11.9-2
		c3.6,0,6.8,0.5,9.5,1.4s4.9,2.1,6.6,3.6c1.8,1.5,3,3.1,3.9,4.7c0.8,1.6,1.2,3.3,1.2,4.8c0,1.4-0.5,2.7-1.5,3.9
		c-1,1.1-2.3,1.7-3.8,1.7c-1.4,0-2.4-0.3-3.1-1c-0.7-0.7-1.5-1.8-2.3-3.4c-1.1-2.2-2.4-4-3.9-5.2c-1.5-1.3-3.9-1.9-7.3-1.9
		c-3.1,0-5.6,0.7-7.5,2c-1.9,1.4-2.9,3-2.9,4.9c0,1.2,0.3,2.2,1,3.1c0.6,0.9,1.5,1.6,2.7,2.2c1.1,0.6,2.3,1.1,3.4,1.5
		c1.2,0.4,3.1,0.9,5.8,1.5c3.3,0.8,6.4,1.6,9.1,2.6c2.7,0.9,5,2.1,6.9,3.4c1.9,1.4,3.4,3.1,4.5,5.1
		C101.9-168.2,102.4-165.6,102.4-162.6z"/>
	<path class="st1" d="M151.8-194.9h-27.1v14.6h25c1.8,0,3.2,0.4,4.1,1.2c0.9,0.8,1.4,1.9,1.4,3.3c0,1.4-0.4,2.5-1.3,3.3
		c-0.9,0.9-2.3,1.3-4.1,1.3h-25v16.9h28c1.9,0,3.3,0.4,4.3,1.3c1,0.9,1.4,2,1.4,3.5c0,1.4-0.5,2.5-1.4,3.4c-1,0.9-2.4,1.3-4.3,1.3
		H120c-2.6,0-4.5-0.6-5.7-1.7c-1.1-1.2-1.7-3-1.7-5.6v-44.7c0-1.7,0.3-3.1,0.8-4.2c0.5-1.1,1.3-1.9,2.4-2.4c1.1-0.5,2.5-0.8,4.2-0.8
		h31.8c1.9,0,3.3,0.4,4.3,1.3c0.9,0.9,1.4,2,1.4,3.3c0,1.4-0.5,2.5-1.4,3.4C155.1-195.4,153.7-194.9,151.8-194.9z"/>
	<path class="st1" d="M218.6-163.6c0,1.9-0.5,3.9-1.4,6.1c-0.9,2.2-2.4,4.4-4.4,6.5c-2,2.1-4.6,3.8-7.7,5.2c-3.1,1.3-6.7,2-10.9,2
		c-3.1,0-6-0.3-8.6-0.9c-2.6-0.6-4.9-1.5-7-2.8c-2.1-1.3-4-2.9-5.8-5c-1.6-1.9-2.9-4-4-6.3c-1.1-2.3-1.9-4.8-2.5-7.4
		c-0.6-2.6-0.8-5.4-0.8-8.3c0-4.8,0.7-9.1,2.1-12.8c1.4-3.8,3.4-7,6-9.7s5.6-4.7,9.1-6.1c3.5-1.4,7.2-2.1,11.1-2.1
		c4.8,0,9.1,1,12.8,2.9c3.8,1.9,6.6,4.3,8.6,7.1c2,2.8,3,5.5,3,8c0,1.4-0.5,2.6-1.5,3.6s-2.1,1.6-3.5,1.6c-1.5,0-2.7-0.4-3.5-1.1
		c-0.8-0.7-1.6-2-2.6-3.8c-1.6-2.9-3.4-5.1-5.5-6.6c-2.1-1.5-4.7-2.2-7.8-2.2c-4.9,0-8.9,1.9-11.8,5.6c-2.9,3.8-4.4,9.1-4.4,16
		c0,4.6,0.6,8.5,1.9,11.5c1.3,3.1,3.1,5.4,5.5,6.9c2.4,1.5,5.2,2.3,8.3,2.3c3.5,0,6.4-0.9,8.8-2.6c2.4-1.7,4.2-4.2,5.4-7.6
		c0.5-1.6,1.1-2.8,1.9-3.8c0.8-1,2-1.5,3.6-1.5c1.4,0,2.7,0.5,3.7,1.5C218.1-166.3,218.6-165.1,218.6-163.6z"/>
	<path class="st1" d="M245.6-170.2h-4.2v19.1c0,2.5-0.6,4.4-1.7,5.6c-1.1,1.2-2.6,1.8-4.3,1.8c-1.9,0-3.4-0.6-4.5-1.9
		c-1.1-1.2-1.6-3.1-1.6-5.5v-45.7c0-2.6,0.6-4.5,1.7-5.6c1.2-1.2,3-1.7,5.6-1.7h19.6c2.7,0,5,0.1,6.9,0.3c1.9,0.2,3.6,0.7,5.2,1.4
		c1.9,0.8,3.5,1.9,4.9,3.4c1.4,1.5,2.5,3.2,3.3,5.1c0.7,1.9,1.1,4,1.1,6.1c0,4.4-1.2,8-3.7,10.6c-2.5,2.6-6.3,4.5-11.4,5.6
		c2.1,1.1,4.2,2.8,6.1,5c1.9,2.2,3.7,4.6,5.2,7.1c1.5,2.5,2.7,4.8,3.6,6.8c0.9,2,1.3,3.4,1.3,4.2c0,0.8-0.2,1.6-0.8,2.3
		c-0.5,0.8-1.2,1.4-2,1.8c-0.9,0.4-1.9,0.7-3,0.7c-1.4,0-2.5-0.3-3.4-1c-0.9-0.6-1.7-1.4-2.4-2.4c-0.7-1-1.6-2.4-2.7-4.3l-4.8-8
		c-1.7-2.9-3.3-5.2-4.6-6.7c-1.4-1.5-2.8-2.6-4.2-3.2C249.5-169.9,247.7-170.2,245.6-170.2z M252.5-195.2h-11.1v16.3h10.8
		c2.9,0,5.3-0.2,7.3-0.8c2-0.5,3.5-1.4,4.5-2.6c1-1.2,1.6-2.9,1.6-5c0-1.6-0.4-3.1-1.3-4.4c-0.8-1.3-2-2.2-3.5-2.8
		C259.4-194.9,256.6-195.2,252.5-195.2z"/>
	<path class="st1" d="M328.3-194.9h-27.1v14.6h25c1.8,0,3.2,0.4,4.1,1.2c0.9,0.8,1.4,1.9,1.4,3.3c0,1.4-0.4,2.5-1.3,3.3
		c-0.9,0.9-2.3,1.3-4.1,1.3h-25v16.9h28c1.9,0,3.3,0.4,4.3,1.3c1,0.9,1.4,2,1.4,3.5c0,1.4-0.5,2.5-1.4,3.4c-1,0.9-2.4,1.3-4.3,1.3
		h-32.7c-2.6,0-4.5-0.6-5.7-1.7c-1.1-1.2-1.7-3-1.7-5.6v-44.7c0-1.7,0.3-3.1,0.8-4.2c0.5-1.1,1.3-1.9,2.4-2.4
		c1.1-0.5,2.5-0.8,4.2-0.8h31.8c1.9,0,3.3,0.4,4.3,1.3c0.9,0.9,1.4,2,1.4,3.3c0,1.4-0.5,2.5-1.4,3.4
		C331.6-195.4,330.2-194.9,328.3-194.9z"/>
	<path class="st1" d="M383.1-194.3h-13.1v43.2c0,2.5-0.6,4.3-1.7,5.5c-1.1,1.2-2.5,1.8-4.3,1.8c-1.8,0-3.2-0.6-4.4-1.8
		s-1.7-3.1-1.7-5.5v-43.2h-13.1c-2.1,0-3.6-0.5-4.6-1.4c-1-0.9-1.5-2.1-1.5-3.6c0-1.5,0.5-2.8,1.6-3.6c1-0.9,2.5-1.3,4.5-1.3h38.3
		c2.1,0,3.6,0.5,4.6,1.4c1,0.9,1.5,2.1,1.5,3.6c0,1.5-0.5,2.7-1.5,3.6C386.7-194.8,385.1-194.3,383.1-194.3z"/>
</g>
<g>
	<g>
		<path class="st1" d="M692.5,247.1c-1,10.5-5.7,67.1-6.9,73.2c-1.1,6.5-5.4,10.2-11.5,10.5h-0.6c-5.6,0-9.8-4-11.3-10.7
			c-1.3-5.4-5.9-65.3-6.3-74.1c-0.4-6.5,1.1-12.1,4.8-16.1c3.4-4,8.8-6.3,14.8-6.3c4.8,0,9,1.9,12.1,5.4
			C691.2,233.1,692.9,239.8,692.5,247.1z M689.2,344c2.1,3.8,2.7,8.6,1.5,14c-1.7,8.4-8.6,14.4-16.7,14.4c-11.1,0-18.2-9.4-18.2-18
			c0-7.9,5.2-19,16.3-19c1.3,0,2.7,0.2,4,0.4C682.3,337.1,686.7,340,689.2,344z"/>
	</g>
</g>
<g>
	<g>
		<path class="st2" d="M60.3,263.5c-15.5,0-26.4-11.4-26.4-17.5c0-3.2,2.5-6.6,6.7-6.6c2.9,0,3.6,0.9,7.2,5
			c1.3,1.5,5.2,6.1,13.1,6.1c4.8,0,9.7-2.4,9.7-6.5c0-3.8-2.2-5.2-15-9.2c-12.9-4-18.7-10-18.7-19.4c0-11.5,8.7-18.9,22.2-18.9
			c10.9,0,24.6,6.3,24.6,13.5c0,3.6-3,6.5-6.6,6.5c-1.3,0-2.6-0.2-5.6-2.8c-4.2-3.4-7.4-4.7-12.3-4.7c-8,0-8.6,4.7-8.6,6.1
			c0,4,2.3,5.5,13.8,8.8c13.9,4,19.8,9.9,19.8,19.6C84.1,256.6,72.1,263.5,60.3,263.5z"/>
		<path class="st2" d="M59,197.4c10.1,0,23.6,6,23.6,12.5c0,3-2.4,5.5-5.6,5.5c-0.9,0-2,0-5-2.5c-4.3-3.5-7.7-4.9-13-4.9
			c-7.4,0-9.6,3.9-9.6,7.1c0,5,3.4,6.6,14.5,9.7c14.5,4.2,19.1,10.1,19.1,18.6c0,12.6-11.5,19-22.8,19c-15.6,0-25.4-11.4-25.4-16.5
			c0-2.8,2.1-5.6,5.7-5.6c2.4,0,2.8,0.5,6.5,4.7c1.4,1.7,5.6,6.4,13.8,6.4c5.7,0,10.7-3,10.7-7.5c0-4.7-3.3-6.2-15.7-10.1
			c-13-4-18-10-18-18.5C37.8,204.8,45.8,197.4,59,197.4 M59,195.4c-13.9,0-23.2,8-23.2,19.9c0,9.8,6.2,16.3,19.4,20.4
			c12.9,4,14.3,5.2,14.3,8.2c0,3.4-4.4,5.5-8.7,5.5c-7.4,0-11.1-4.3-12.3-5.7c-3.7-4.2-4.7-5.4-8-5.4c-3.8,0-7.7,2.8-7.7,7.6
			c0,6.4,10.7,18.5,27.4,18.5c12.3,0,24.8-7.2,24.8-21c0-10.3-6.1-16.4-20.6-20.6c-11.5-3.3-13.1-4.5-13.1-7.8
			c0-3.2,2.8-5.1,7.6-5.1c4.7,0,7.6,1.1,11.7,4.4c3.3,2.8,4.7,3,6.2,3c4.2,0,7.6-3.4,7.6-7.5c0-3.8-3.2-7.5-9.1-10.5
			C70.4,196.9,64.2,195.4,59,195.4L59,195.4z"/>
	</g>
	<g>
		<path class="st2" d="M101.6,263.5c-4.2,0-6.4-3-6.4-6.1v-48.9c0-6.9,3.7-10.7,10.4-10.7h16.8c13.1,0,19,10.3,19,20
			c0,12.3-7.8,20.8-19,20.8h-14.2v18.7C108.2,261.3,104.8,263.5,101.6,263.5z M119.2,226c3.3,0,9-1,9-7.9c0-7-5.8-7.8-8.3-7.8H111
			c-2.5,0-2.8,0.2-2.8,2.1V226H119.2z"/>
		<path class="st2" d="M122.5,198.8c11.9,0,18,9,18,19c0,12.4-7.9,19.8-18,19.8h-15.2v19.7c0,3.4-2.8,5.2-5.6,5.2
			c-3.8,0-5.4-2.8-5.4-5.1v-48.9c0-7.1,4-9.7,9.4-9.7H122.5 M107.2,227h12c5.6,0,10-2.6,10-8.9c0-7-5.4-8.8-9.3-8.8H111
			c-2.7,0-3.8,0.3-3.8,3.1V227 M122.5,196.8h-16.8c-7.2,0-11.4,4.3-11.4,11.7v48.9c0,3.4,2.6,7.1,7.4,7.1c3.7,0,7.6-2.5,7.6-7.2
			v-17.7h13.2c11.8,0,20-9,20-21.8C142.5,207.7,136.2,196.8,122.5,196.8L122.5,196.8z M109.3,211.5c0.2-0.1,0.6-0.1,1.7-0.1h8.8
			c2.7,0,7.3,0.9,7.3,6.8c0,4.6-2.7,6.9-8,6.9h-10v-12.6C109.2,211.9,109.3,211.6,109.3,211.5L109.3,211.5z M109.3,211.4
			L109.3,211.4L109.3,211.4L109.3,211.4z"/>
	</g>
	<g>
		<path class="st2" d="M162.8,262.1c-6.4,0-9.5-3.6-9.5-10.9V208c0-4.7,2.4-10.2,9.3-10.2h26.8c4.3,0,6.9,2.5,6.9,6.7
			c0,4.3-3.3,6.3-6.6,6.3h-22.6c-0.3,0-0.8,0-0.8,1.4v10.5h21.2c4.1,0,6.2,3.2,6.2,6.5c0,4.8-3.7,6.1-5.9,6.1h-21.5v12.7
			c0,0.5,0.4,1.2,1.3,1.2h22c4.3,0,6.8,2.4,6.8,6.6c0,5-4.2,6.4-6.6,6.4H162.8z"/>
		<path class="st2" d="M189.4,198.8c1.7,0,5.9,0.5,5.9,5.7c0,4.4-3.7,5.3-5.6,5.3h-22.6c-1.4,0-1.8,1.2-1.8,2.4v11.5h22.2
			c3.6,0,5.2,2.8,5.2,5.5c0,4.8-4.1,5.1-4.9,5.1h-22.5v13.7c0,1,0.8,2.2,2.3,2.2h22c1.9,0,5.8,0.6,5.8,5.6c0,5-4.7,5.4-5.6,5.4
			h-26.9c-5.6,0-8.5-2.9-8.5-9.9V208c0-4.5,2.2-9.2,8.3-9.2H189.4 M189.4,196.8h-26.8c-6.3,0-10.3,4.4-10.3,11.2v43.2
			c0,7.9,3.5,11.9,10.5,11.9h26.9c2.6,0,7.6-1.5,7.6-7.4c0-4.7-3-7.6-7.8-7.6h-22c-0.2,0-0.3-0.1-0.3-0.2v-11.7h20.5
			c3.3,0,6.9-2.2,6.9-7.1c0-4.9-3.6-7.5-7.2-7.5h-20.2v-9.5c0-0.2,0-0.3,0-0.4l22.4,0c3.8,0,7.6-2.3,7.6-7.3
			C197.3,199.8,194.3,196.8,189.4,196.8L189.4,196.8z"/>
	</g>
	<g>
		<path class="st2" d="M234.4,263.5c-22.2,0-30.1-18-30.1-33.4c0-16.8,9.3-33.7,30-33.7c16.6,0,24.9,10.9,24.9,17
			c0,3.9-2.7,6.5-6.6,6.5c-3.5,0-4.7-1.8-5.3-2.8c0,0-0.1-0.1-0.1-0.1c-2.4-3.9-4.4-7.3-12.5-7.3c-15.1,0-16.8,14.2-16.8,20.3
			c0,3.4,0.8,20.2,16.3,20.2c7.5,0,10-3.4,11.9-6.9c1.4-2.5,2.7-4.9,6.5-4.9c3.6,0,6.5,2.7,6.5,6
			C259.3,249.5,253.4,263.5,234.4,263.5z"/>
		<path class="st2" d="M234.3,197.4c15.5,0,23.9,10.1,23.9,16c0,3.5-2.4,5.5-5.6,5.5c-3.1,0-3.9-1.5-4.5-2.4
			c-2.5-4.2-4.8-7.8-13.4-7.8c-17.1,0-17.8,17.1-17.8,21.3c0,7.6,2.9,21.2,17.3,21.2c8,0,10.7-3.7,12.8-7.4c1.3-2.4,2.4-4.3,5.6-4.3
			c3.2,0,5.5,2.4,5.5,5c0,3.3-4.3,18.1-23.9,18.1c-22,0-29.1-17.9-29.1-32.4C205.3,213.2,214.6,197.4,234.3,197.4 M234.3,195.4
			c-21.4,0-31,17.4-31,34.7c0,15.9,8.1,34.4,31.1,34.4c11.2,0,17.5-4.6,20.8-8.5c3.7-4.3,5.1-9.3,5.1-11.6c0-3.8-3.4-7-7.5-7
			c-4.4,0-6,2.8-7.3,5.4c-1.9,3.4-4.1,6.4-11.1,6.4c-5.6,0-9.7-2.3-12.3-6.7c-2.7-4.6-3-10.2-3-12.4c0-5.8,1.5-19.3,15.8-19.3
			c7.5,0,9.2,2.9,11.6,6.9l0.1,0.1c0.6,1,2,3.2,6.1,3.2c4.5,0,7.6-3.1,7.6-7.5C260.3,205.9,250.4,195.4,234.3,195.4L234.3,195.4z"/>
	</g>
	<g>
		<path class="st2" d="M278.2,263.5c-3.7,0-6.6-2.9-6.6-6.6V203c0-3.2,2.2-6.6,6.3-6.6c3.8,0,6.7,2.9,6.7,6.6v53.9
			C284.6,260.7,281.9,263.5,278.2,263.5z"/>
		<path class="st2" d="M277.9,197.4c3.3,0,5.7,2.5,5.7,5.6v53.9c0,3.1-2.1,5.6-5.4,5.6c-3.2,0-5.6-2.5-5.6-5.6V203
			C272.6,200.3,274.4,197.4,277.9,197.4 M277.9,195.4c-3.5,0-7.3,2.7-7.3,7.6v53.9c0,4.3,3.3,7.6,7.6,7.6c4.3,0,7.4-3.2,7.4-7.6V203
			C285.6,198.8,282.2,195.4,277.9,195.4L277.9,195.4z"/>
	</g>
	<g>
		<path class="st2" d="M346,263.6c-2.8,0-4.9-1.6-6-4.8l-4.1-11.7H313l-4.2,11.7c-1.1,3.1-3.2,4.7-6.2,4.7c-4,0-6.8-2.6-6.8-6.4
			c0-1.4,0.3-2.4,0.6-2.9l19.4-50.7c1.9-4.7,4.8-7.1,8.4-7.1c4.2,0,7.3,2.4,9.1,7.1l19.4,50.7c0.2,0.5,0.6,1.5,0.6,2.6
			C353.2,259.4,351.7,263.6,346,263.6z M331.5,234.6l-7-20.2l-7,20.2H331.5z"/>
		<path class="st2" d="M324.2,197.4c3.2,0,6.2,1.4,8.1,6.5l19.4,50.7c0.2,0.4,0.6,1.3,0.6,2.3c0,0.6-0.2,5.7-6.2,5.7
			c-2.9,0-4.3-2.1-5.1-4.1l-4.3-12.3h-24.3l-4.4,12.3c-1.4,4-4.3,4-5.3,4c-3.3,0-5.8-2-5.8-5.4c0-1.1,0.2-2,0.5-2.5l19.4-50.7
			C317.4,201.9,319.6,197.4,324.2,197.4 M316,235.6h16.9l-8.5-24.3L316,235.6 M324.2,195.4c-4,0-7.4,2.7-9.4,7.7l-19.4,50.7
			c-0.3,0.7-0.6,1.8-0.6,3.3c0,4.3,3.2,7.4,7.8,7.4c3.5,0,5.9-1.8,7.2-5.4l3.9-11h21.5l3.9,11c1.3,3.5,3.7,5.4,6.9,5.4
			c4.1,0,6.1-2,7.1-3.6c1-1.8,1.1-3.6,1.1-4.1c0-1.3-0.5-2.5-0.7-3l-19.4-50.7C332.2,198,328.9,195.4,324.2,195.4L324.2,195.4z
			 M318.8,233.6l5.6-16.2l5.6,16.2H318.8L318.8,233.6z"/>
	</g>
	<g>
		<path class="st2" d="M373.9,262.1c-5,0-10.2-1.3-10.2-11v-48c0-3.7,2.9-6.6,6.6-6.6c4.2,0,6.4,3.8,6.4,6.6v43.8
			c0,2.3,0.2,2.3,1.3,2.3h22.3c4.5,0,6.5,3.2,6.5,6.3c0,4.3-3,6.6-6,6.6H373.9z"/>
		<path class="st2" d="M370.3,197.4c3.6,0,5.4,3.5,5.4,5.6v43.8c0,2.5,0.3,3.3,2.3,3.3h22.3c4,0,5.5,2.8,5.5,5.3
			c0,3.9-2.7,5.6-5,5.6h-26.9c-4.7,0-9.2-1.1-9.2-10v-48C364.7,199.9,367.1,197.4,370.3,197.4 M370.3,195.4c-4.3,0-7.6,3.3-7.6,7.6
			v48c0,10.7,6,12,11.2,12h26.9c3.5,0,7-2.6,7-7.6c0-5-3.9-7.3-7.5-7.3H378c-0.1,0-0.2,0-0.2,0c0-0.2-0.1-0.6-0.1-1.3V203
			C377.7,199.8,375.1,195.4,370.3,195.4L370.3,195.4z"/>
	</g>
</g>
<polygon class="st2" points="220,35.3 230.6,56.9 254.4,60.3 237.2,77.1 241.3,100.8 220,89.6 198.7,100.8 202.8,77.1 185.6,60.3 
	209.4,56.9 "/>
<polygon class="st2" points="337.8,81.6 334.4,105.1 351.8,121.2 328.4,125.3 318.5,146.8 307.4,125.8 283.8,123 300.4,106 
	295.8,82.7 317.1,93.2 "/>
<polygon class="st2" points="104.5,80.6 124.3,93.7 146.3,84.7 140.1,107.6 155.4,125.7 131.7,126.9 119.2,147.1 110.8,124.8 
	87.7,119.2 106.2,104.3 "/>
</svg>
