<?xml version="1.0" encoding="utf-8"?>
<!-- Generator: Adobe Illustrator 28.0.0, SVG Export Plug-In . SVG Version: 6.00 Build 0)  -->
<svg version="1.1" id="レイヤー_1" xmlns="http://www.w3.org/2000/svg" xmlns:xlink="http://www.w3.org/1999/xlink" x="0px"
	 y="0px" viewBox="0 0 90 90" style="enable-background:new 0 0 90 90;" xml:space="preserve">
<style type="text/css">
	.st0{fill:#FFFBC7;}
	.st1{fill:#FFF100;}
	.st2{fill:#F39800;}
	.st3{fill:#E60012;}
</style>
<g>
	<polygon class="st0" points="90,45 82.6,52.5 86.6,62.2 76.9,66.3 76.8,76.8 66.3,76.9 62.2,86.6 52.5,82.6 45,90 37.5,82.6 
		27.8,86.6 23.7,76.9 13.2,76.8 13.1,66.3 3.4,62.2 7.4,52.5 0,45 7.4,37.5 3.4,27.8 13.1,23.7 13.2,13.2 23.7,13.1 27.8,3.4 
		37.5,7.4 45,0 52.5,7.4 62.2,3.4 66.3,13.1 76.8,13.2 76.9,23.7 86.6,27.8 82.6,37.5 	"/>
	<g>
		<polygon class="st1" points="83.9,45 77.5,51.5 80.9,59.9 72.6,63.4 72.5,72.5 63.4,72.6 59.9,80.9 51.5,77.5 45,83.9 38.5,77.5 
			30.1,80.9 26.6,72.6 17.5,72.5 17.4,63.4 9.1,59.9 12.5,51.5 6.1,45 12.5,38.5 9.1,30.1 17.4,26.6 17.5,17.5 26.6,17.4 30.1,9.1 
			38.5,12.5 45,6.1 51.5,12.5 59.9,9.1 63.4,17.4 72.5,17.5 72.6,26.6 80.9,30.1 77.5,38.5 		"/>
		<polygon class="st2" points="77.1,45 71.9,50.3 74.7,57.3 67.8,60.2 67.7,67.7 60.2,67.8 57.3,74.7 50.3,71.9 45,77.1 39.7,71.9 
			32.7,74.7 29.8,67.8 22.3,67.7 22.2,60.2 15.3,57.3 18.1,50.3 12.9,45 18.1,39.7 15.3,32.7 22.2,29.8 22.3,22.3 29.8,22.2 
			32.7,15.3 39.7,18.1 45,12.9 50.3,18.1 57.3,15.3 60.2,22.2 67.7,22.3 67.8,29.8 74.7,32.7 71.9,39.7 		"/>
		<circle class="st3" cx="45" cy="45" r="22.3"/>
	</g>
</g>
</svg>
