<?xml version="1.0" encoding="utf-8"?>
<!-- Generator: Adobe Illustrator 25.4.1, SVG Export Plug-In . SVG Version: 6.00 Build 0)  -->
<svg version="1.1" id="レイヤー_1" xmlns="http://www.w3.org/2000/svg" xmlns:xlink="http://www.w3.org/1999/xlink" x="0px"
	 y="0px" viewBox="0 0 178 18" style="enable-background:new 0 0 178 18;" xml:space="preserve">
<style type="text/css">
	.st0{fill:#FFFFFF;}
</style>
<g>
	<polygon class="st0" points="174.1,6.5 170.9,6.5 170.9,0.3 165.2,0.3 165.2,6.5 162,6.5 168.1,13 	"/>
	<polygon class="st0" points="175.2,10.1 175.2,15.1 161,15.1 161,10.1 158.6,10.1 158.6,17.4 160.3,17.4 161,17.4 175.2,17.4 
		176.7,17.4 177.5,17.4 177.5,10.1 	"/>
	<path class="st0" d="M12.7,3.1C11.9,2.4,11,1.8,10,1.4C9,1,7.8,0.8,6.6,0.8H2.7H2H0.5v16.7h1.5h0.8h4c1.2,0,2.3-0.2,3.3-0.6
		c1-0.4,1.9-1,2.7-1.8c0.8-0.8,1.3-1.6,1.8-2.7c0.4-1,0.6-2.1,0.6-3.3c0-1.2-0.2-2.3-0.6-3.3C14,4.8,13.4,3.9,12.7,3.1z M12,12.3
		c-0.5,0.9-1.2,1.7-2.2,2.2s-2,0.8-3.2,0.8H2.7V2.8h3.9c1.2,0,2.3,0.3,3.2,0.8c0.9,0.5,1.7,1.3,2.2,2.2c0.5,0.9,0.8,2,0.8,3.2
		C12.8,10.3,12.5,11.4,12,12.3z"/>
	<path class="st0" d="M32,3c-0.8-0.8-1.7-1.4-2.7-1.8c-1-0.4-2.1-0.6-3.3-0.6s-2.3,0.2-3.3,0.6c-1,0.4-1.9,1-2.7,1.8
		c-0.8,0.8-1.4,1.7-1.8,2.7s-0.6,2.1-0.6,3.3c0,1.2,0.2,2.3,0.6,3.3s1,2,1.8,2.7c0.8,0.8,1.7,1.4,2.7,1.8c1,0.4,2.1,0.7,3.3,0.7
		c1.2,0,2.3-0.2,3.3-0.7c1-0.4,1.9-1.1,2.7-1.8c0.8-0.8,1.4-1.7,1.8-2.7c0.4-1,0.6-2.2,0.6-3.3c0-1.2-0.2-2.3-0.6-3.4
		C33.3,4.7,32.7,3.8,32,3z M31.3,12.4c-0.5,1-1.2,1.7-2.1,2.3s-2,0.8-3.1,0.8c-0.9,0-1.7-0.2-2.4-0.5c-0.7-0.3-1.4-0.8-1.9-1.3
		c-0.5-0.6-1-1.2-1.2-2c-0.3-0.8-0.4-1.7-0.4-2.6c0-1.2,0.3-2.4,0.8-3.3S22,4,22.9,3.5C23.8,3,24.8,2.7,26,2.7
		c0.9,0,1.7,0.2,2.4,0.5c0.7,0.3,1.4,0.8,1.9,1.3c0.5,0.6,1,1.3,1.3,2c0.3,0.8,0.4,1.6,0.4,2.6C32.1,10.3,31.8,11.4,31.3,12.4z"/>
	<polygon class="st0" points="52.3,13.4 48.4,0.8 46.7,0.8 42.8,13.3 38.8,0.8 36.5,0.8 42,17.4 43.6,17.4 47.5,4.9 51.5,17.4 
		53.1,17.4 58.5,0.8 56.3,0.8 	"/>
	<polygon class="st0" points="72.4,13.1 63.1,0.8 61.5,0.8 61.5,17.4 63.8,17.4 63.8,5.1 73,17.4 74.6,17.4 74.6,0.8 72.4,0.8 	"/>
	<polygon class="st0" points="81.1,0.8 78.8,0.8 78.8,17.4 80.3,17.4 81.1,17.4 89.3,17.4 89.3,15.4 81.1,15.4 	"/>
	<path class="st0" d="M105.8,3c-0.8-0.8-1.7-1.4-2.7-1.8c-1-0.4-2.1-0.6-3.3-0.6s-2.3,0.2-3.3,0.6c-1,0.4-1.9,1-2.7,1.8
		c-0.8,0.8-1.4,1.7-1.8,2.7s-0.6,2.1-0.6,3.3c0,1.2,0.2,2.3,0.6,3.3s1,2,1.8,2.7c0.8,0.8,1.7,1.4,2.7,1.8c1,0.4,2.1,0.7,3.3,0.7
		c1.2,0,2.3-0.2,3.3-0.7c1-0.4,1.9-1.1,2.7-1.8c0.8-0.8,1.4-1.7,1.8-2.7c0.4-1,0.6-2.2,0.6-3.3c0-1.2-0.2-2.3-0.6-3.4
		C107.2,4.7,106.6,3.8,105.8,3z M105.1,12.4c-0.5,1-1.2,1.7-2.1,2.3s-2,0.8-3.1,0.8c-0.9,0-1.7-0.2-2.4-0.5
		c-0.7-0.3-1.4-0.8-1.9-1.3c-0.5-0.6-1-1.2-1.2-2c-0.3-0.8-0.4-1.7-0.4-2.6c0-1.2,0.3-2.4,0.8-3.3s1.2-1.7,2.1-2.3
		c0.9-0.5,1.9-0.8,3.1-0.8c0.9,0,1.7,0.2,2.4,0.5c0.7,0.3,1.4,0.8,1.9,1.3c0.5,0.6,1,1.3,1.3,2c0.3,0.8,0.4,1.6,0.4,2.6
		C105.9,10.3,105.6,11.4,105.1,12.4z"/>
	<path class="st0" d="M117.2,0.8l-6.8,16.7h2.4l1.5-3.8h7.4l1.5,3.8h2.4l-6.8-16.7H117.2z M115.1,11.7l2.9-7.3l2.9,7.3H115.1z"/>
	<path class="st0" d="M140.8,3.1c-0.8-0.8-1.7-1.3-2.7-1.8c-1-0.4-2.2-0.6-3.4-0.6h-3.9H130h-1.5v16.7h1.5h0.8h4
		c1.2,0,2.3-0.2,3.3-0.6c1-0.4,1.9-1,2.7-1.8c0.8-0.8,1.3-1.6,1.8-2.7c0.4-1,0.6-2.1,0.6-3.3c0-1.2-0.2-2.3-0.6-3.3
		C142.1,4.8,141.5,3.9,140.8,3.1z M140.1,12.3c-0.5,0.9-1.2,1.7-2.2,2.2s-2,0.8-3.2,0.8h-3.9V2.8h3.9c1.2,0,2.3,0.3,3.2,0.8
		c0.9,0.5,1.7,1.3,2.2,2.2c0.5,0.9,0.8,2,0.8,3.2C140.8,10.3,140.6,11.4,140.1,12.3z"/>
</g>
</svg>
